<svg xmlns="http://www.w3.org/2000/svg" width="3508" height="2481" viewBox="0 0 3508 2481" version="1.1"><path d="M 665.776 1156.238 C 665.500 1265.500, 665.500 1265.500, 663.295 1271.275 C 662.082 1274.452, 659.607 1279.841, 657.795 1283.251 C 655.936 1286.749, 651.427 1292.528, 647.449 1296.511 C 642.581 1301.385, 637.901 1304.869, 632.335 1307.765 C 627.900 1310.072, 621.398 1312.637, 617.886 1313.465 C 614.374 1314.293, 607.675 1314.970, 603 1314.970 C 598.325 1314.970, 591.660 1314.301, 588.188 1313.482 C 584.717 1312.664, 579.211 1310.672, 575.953 1309.056 C 572.695 1307.439, 568.041 1304.749, 565.611 1303.076 C 563.181 1301.404, 558.866 1297.441, 556.023 1294.268 C 553.180 1291.096, 549.117 1284.900, 546.993 1280.500 C 544.870 1276.100, 542.427 1269.031, 541.566 1264.792 C 540.705 1260.553, 540.008 1254.928, 540.017 1252.292 C 540.027 1249.656, 540.694 1244.350, 541.499 1240.500 C 542.305 1236.650, 544.749 1229.879, 546.930 1225.452 C 549.357 1220.528, 554.286 1213.348, 559.630 1206.952 C 564.434 1201.204, 581.227 1181.650, 596.948 1163.500 C 612.670 1145.350, 627.658 1127.982, 630.255 1124.905 C 632.852 1121.828, 634.683 1119.016, 634.322 1118.655 C 633.962 1118.295, 613.462 1118, 588.768 1118 C 559.474 1118, 543.190 1118.363, 541.917 1119.044 C 540.844 1119.619, 533.561 1127.606, 525.733 1136.794 C 517.905 1145.982, 509.434 1155.975, 506.909 1159 C 504.384 1162.025, 498.652 1169.336, 494.172 1175.246 C 489.692 1181.157, 484.273 1189.482, 482.129 1193.746 C 479.986 1198.011, 476.881 1205.550, 475.228 1210.500 C 473.575 1215.450, 471.498 1223.742, 470.611 1228.926 C 469.614 1234.761, 469 1244.141, 469 1253.545 C 469 1262.444, 469.609 1272.210, 470.470 1277.119 C 471.278 1281.729, 473.284 1289.464, 474.926 1294.309 C 476.569 1299.154, 479.973 1307.203, 482.491 1312.196 C 485.009 1317.189, 489.417 1324.677, 492.285 1328.836 C 495.153 1332.995, 501.291 1340.388, 505.925 1345.264 C 510.559 1350.140, 518.143 1356.976, 522.779 1360.455 C 527.414 1363.934, 535.605 1369.080, 540.981 1371.892 C 546.356 1374.703, 555.422 1378.518, 561.127 1380.370 C 566.832 1382.222, 574.650 1384.359, 578.500 1385.118 C 582.890 1385.985, 592.210 1386.498, 603.500 1386.495 C 618.681 1386.491, 623.132 1386.125, 631.919 1384.163 C 637.649 1382.883, 645.524 1380.697, 649.419 1379.307 C 653.313 1377.916, 660.512 1374.719, 665.415 1372.203 C 670.318 1369.686, 677.743 1365.089, 681.915 1361.987 C 686.087 1358.885, 692.104 1353.959, 695.287 1351.040 C 698.469 1348.121, 703.869 1342.237, 707.287 1337.966 C 710.704 1333.695, 715.665 1326.561, 718.311 1322.112 C 720.957 1317.664, 724.861 1309.856, 726.987 1304.762 C 729.112 1299.668, 731.807 1291.900, 732.976 1287.500 C 734.144 1283.100, 735.744 1274.775, 736.531 1269 C 737.531 1261.655, 737.967 1248.360, 737.980 1224.750 C 737.993 1203.821, 738.365 1191, 738.962 1191 C 739.491 1191, 743.278 1192.065, 747.377 1193.367 C 751.477 1194.669, 757.906 1197.788, 761.665 1200.299 C 765.424 1202.810, 770.611 1207.032, 773.190 1209.682 C 775.770 1212.332, 779.499 1217.200, 781.477 1220.500 C 783.454 1223.800, 786.064 1229.425, 787.276 1233 C 789.447 1239.405, 789.487 1240.566, 789.990 1312.500 C 790.500 1385.500, 790.500 1385.500, 826.500 1385.500 C 862.500 1385.500, 862.500 1385.500, 862.762 1345.644 C 863.023 1305.787, 863.023 1305.787, 871.926 1319.144 C 876.822 1326.490, 884.415 1336.550, 888.800 1341.500 C 893.184 1346.450, 899.185 1352.561, 902.136 1355.079 C 905.086 1357.598, 910.271 1361.693, 913.658 1364.180 C 917.045 1366.667, 923.807 1370.764, 928.686 1373.284 C 933.565 1375.804, 940.993 1379.019, 945.191 1380.428 C 949.390 1381.837, 956.127 1383.712, 960.162 1384.593 C 964.198 1385.474, 973.872 1386.437, 981.660 1386.733 C 990.143 1387.054, 999.765 1386.785, 1005.660 1386.061 C 1011.072 1385.396, 1020.225 1383.795, 1026 1382.503 C 1031.775 1381.211, 1039.987 1379.043, 1044.250 1377.683 C 1048.513 1376.324, 1052 1375.305, 1052 1375.419 C 1052 1375.532, 1050.686 1379.513, 1049.079 1384.265 C 1047.473 1389.017, 1044.471 1396.118, 1042.407 1400.045 C 1040.235 1404.179, 1036.154 1409.686, 1032.715 1413.125 C 1028.354 1417.486, 1024.347 1420.228, 1017.638 1423.444 C 1012.612 1425.853, 1004.900 1428.593, 1000.500 1429.532 C 996.100 1430.472, 991.932 1431.400, 991.237 1431.594 C 990.244 1431.872, 990.030 1439.286, 990.237 1466.224 C 990.500 1500.500, 990.500 1500.500, 1000.500 1500.154 C 1006 1499.964, 1013.650 1499.167, 1017.500 1498.383 C 1021.350 1497.600, 1027.425 1496.013, 1031 1494.858 C 1034.575 1493.703, 1040.594 1491.422, 1044.376 1489.788 C 1048.157 1488.154, 1054.594 1484.841, 1058.679 1482.426 C 1062.765 1480.010, 1068.896 1475.904, 1072.304 1473.300 C 1075.712 1470.696, 1082.034 1464.951, 1086.353 1460.533 C 1090.672 1456.115, 1096.896 1448.477, 1100.185 1443.561 C 1103.474 1438.644, 1107.729 1431.516, 1109.640 1427.721 C 1111.552 1423.926, 1114.638 1416.248, 1116.499 1410.660 C 1118.360 1405.072, 1120.696 1396.225, 1121.691 1391 C 1123.319 1382.448, 1123.500 1375.060, 1123.500 1317 C 1123.500 1268.585, 1123.171 1250.380, 1122.182 1244 C 1121.457 1239.325, 1118.894 1227.175, 1116.488 1217 C 1114.081 1206.825, 1111.806 1196.782, 1111.432 1194.681 C 1110.752 1190.863, 1110.752 1190.863, 1114.626 1191.565 C 1116.757 1191.952, 1121.309 1193.275, 1124.742 1194.507 C 1128.174 1195.738, 1133.506 1198.265, 1136.589 1200.123 C 1139.672 1201.980, 1145.033 1206.500, 1148.502 1210.168 C 1152.423 1214.312, 1156.164 1219.610, 1158.390 1224.168 C 1160.359 1228.200, 1162.745 1234.200, 1163.692 1237.500 C 1165.224 1242.838, 1165.474 1251.385, 1165.957 1315 C 1166.500 1386.500, 1166.500 1386.500, 1198 1386.780 C 1215.325 1386.933, 1230.504 1386.814, 1231.732 1386.515 C 1232.959 1386.216, 1234.681 1384.584, 1235.557 1382.889 C 1236.983 1380.132, 1237.108 1372.321, 1236.742 1308.654 C 1236.396 1248.405, 1236.083 1236.116, 1234.698 1228.470 C 1233.799 1223.504, 1231.894 1215.406, 1230.465 1210.476 C 1229.036 1205.545, 1226.161 1197.871, 1224.077 1193.422 C 1221.992 1188.974, 1217.902 1181.771, 1214.988 1177.417 C 1212.074 1173.063, 1204.922 1164.738, 1199.095 1158.918 C 1192.401 1152.232, 1184.808 1145.897, 1178.472 1141.712 C 1172.957 1138.070, 1163.732 1132.844, 1157.972 1130.101 C 1152.212 1127.357, 1143.450 1123.931, 1138.500 1122.487 C 1133.384 1120.995, 1124.299 1119.382, 1117.446 1118.749 C 1110.817 1118.136, 1104.630 1117.928, 1103.696 1118.286 C 1102.154 1118.878, 1102 1121.634, 1102 1148.696 C 1102 1178.456, 1102 1178.456, 1098.861 1174.478 C 1097.135 1172.290, 1090.043 1164.875, 1083.103 1158 C 1075.768 1150.734, 1066.880 1143.092, 1061.879 1139.749 C 1057.146 1136.586, 1049.500 1132.236, 1044.887 1130.081 C 1040.274 1127.927, 1033.575 1125.226, 1030 1124.079 C 1026.425 1122.933, 1020.350 1121.309, 1016.500 1120.472 C 1012.650 1119.634, 1003.875 1118.674, 997 1118.337 C 989.407 1117.966, 980.390 1118.204, 974.029 1118.945 C 968.271 1119.616, 958.596 1121.425, 952.529 1122.965 C 946.463 1124.506, 937.439 1127.524, 932.476 1129.672 C 927.513 1131.821, 919.638 1136.069, 914.976 1139.112 C 910.314 1142.155, 903.891 1146.932, 900.703 1149.728 C 897.514 1152.523, 892.183 1157.891, 888.856 1161.655 C 885.528 1165.420, 880.405 1172.104, 877.471 1176.510 C 874.536 1180.915, 869.691 1189.465, 866.703 1195.510 C 863.715 1201.554, 860.465 1208.661, 859.479 1211.303 C 857.688 1216.105, 857.688 1216.105, 854.464 1207.766 C 852.691 1203.180, 849.649 1196.267, 847.703 1192.403 C 845.757 1188.539, 841.343 1181.131, 837.893 1175.939 C 834.301 1170.534, 827.534 1162.429, 822.060 1156.976 C 816.802 1151.737, 808.675 1144.923, 804 1141.833 C 799.325 1138.744, 791.743 1134.340, 787.151 1132.047 C 782.560 1129.754, 774.235 1126.351, 768.651 1124.484 C 763.068 1122.617, 754.118 1120.313, 748.763 1119.365 C 739.025 1117.642, 739.025 1117.642, 738.763 1082.571 C 738.500 1047.500, 738.500 1047.500, 702.276 1047.238 C 666.051 1046.975, 666.051 1046.975, 665.776 1156.238 M 790.565 1072.947 C 790.830 1093.863, 791.192 1099.470, 792.432 1101.868 C 793.278 1103.504, 795.289 1105.782, 796.902 1106.930 C 798.514 1108.078, 802.948 1109.721, 806.754 1110.581 C 810.561 1111.440, 815.886 1113.408, 818.588 1114.953 C 821.289 1116.499, 827.325 1121.113, 832 1125.208 C 836.675 1129.302, 845.280 1137.681, 851.122 1143.826 C 856.965 1149.972, 862.027 1155, 862.372 1155 C 862.718 1155, 863 1130.700, 863 1101 C 863 1047, 863 1047, 826.618 1047 C 790.237 1047, 790.237 1047, 790.565 1072.947 M 1166 1073.865 C 1166 1099.305, 1166.107 1100.867, 1168.020 1103.298 C 1169.131 1104.711, 1175.319 1108.522, 1181.770 1111.767 C 1188.222 1115.012, 1197.635 1120.228, 1202.689 1123.357 C 1207.744 1126.486, 1214.125 1130.822, 1216.871 1132.992 C 1219.617 1135.163, 1224.663 1140.665, 1228.085 1145.219 C 1231.507 1149.774, 1234.688 1153.928, 1235.154 1154.450 C 1235.619 1154.973, 1236 1131.010, 1236 1101.200 C 1236 1047, 1236 1047, 1201 1047 C 1166 1047, 1166 1047, 1166 1073.865 M 1243.280 1160.250 C 1243.593 1262.881, 1243.786 1274.156, 1245.333 1280.500 C 1246.272 1284.350, 1247.985 1290.425, 1249.141 1294 C 1250.296 1297.575, 1252.577 1303.591, 1254.209 1307.369 C 1255.841 1311.147, 1259.398 1317.999, 1262.114 1322.596 C 1264.829 1327.194, 1270.177 1334.678, 1273.997 1339.228 C 1277.817 1343.777, 1283.379 1349.620, 1286.356 1352.211 C 1289.333 1354.802, 1295.175 1359.365, 1299.338 1362.352 C 1303.501 1365.339, 1311.540 1370.071, 1317.204 1372.867 C 1322.867 1375.664, 1331.550 1379.252, 1336.500 1380.840 C 1341.450 1382.428, 1348.650 1384.351, 1352.500 1385.113 C 1356.479 1385.902, 1365.542 1386.495, 1373.500 1386.487 C 1381.200 1386.481, 1388.730 1386.136, 1390.234 1385.722 C 1392.968 1384.970, 1392.968 1384.970, 1393.234 1357.446 C 1393.500 1329.923, 1393.500 1329.923, 1407.498 1346.211 C 1415.196 1355.170, 1425.670 1367.084, 1430.773 1372.688 C 1438.626 1381.311, 1440.897 1383.192, 1445.563 1384.938 C 1450.784 1386.891, 1453.118 1386.999, 1489.788 1386.989 C 1511.079 1386.983, 1530.204 1386.696, 1532.288 1386.352 C 1534.371 1386.008, 1535.946 1385.349, 1535.788 1384.889 C 1535.629 1384.428, 1520.808 1367.278, 1502.852 1346.776 C 1484.895 1326.274, 1466.511 1305.029, 1461.997 1299.563 C 1457.483 1294.098, 1452.645 1287.814, 1451.246 1285.598 C 1449.848 1283.383, 1447.336 1277.954, 1445.665 1273.535 C 1442.891 1266.200, 1442.621 1264.411, 1442.563 1253 C 1442.510 1242.462, 1442.866 1239.401, 1444.833 1233.500 C 1446.116 1229.650, 1448.527 1224.111, 1450.190 1221.192 C 1451.853 1218.272, 1455.683 1213.216, 1458.702 1209.955 C 1461.721 1206.695, 1467.331 1201.939, 1471.169 1199.388 C 1475.007 1196.836, 1481.377 1193.621, 1485.324 1192.243 C 1489.870 1190.656, 1495.627 1189.556, 1501.032 1189.243 C 1507.635 1188.859, 1511.479 1189.224, 1518.032 1190.856 C 1522.689 1192.015, 1530.325 1194.877, 1535 1197.215 C 1541.253 1200.342, 1545.352 1203.321, 1550.505 1208.483 C 1554.375 1212.359, 1558.931 1218.189, 1560.684 1221.507 C 1562.430 1224.811, 1564.884 1230.886, 1566.138 1235.007 C 1568.407 1242.461, 1568.420 1242.877, 1568.758 1314.750 C 1569.097 1387, 1569.097 1387, 1602.358 1387 C 1629.494 1387, 1635.975 1386.739, 1637.559 1385.581 C 1639.404 1384.233, 1639.525 1382.320, 1640 1346.852 C 1640.500 1309.542, 1640.500 1309.542, 1645.469 1316.506 C 1648.201 1320.337, 1654.307 1327.977, 1659.038 1333.485 C 1663.768 1338.993, 1670.757 1346.379, 1674.569 1349.897 C 1678.381 1353.415, 1685.047 1358.943, 1689.383 1362.181 C 1693.718 1365.419, 1700.300 1369.871, 1704.009 1372.075 C 1707.718 1374.278, 1714.521 1377.672, 1719.126 1379.616 C 1723.732 1381.560, 1731.325 1384.094, 1736 1385.246 C 1742.163 1386.766, 1747.799 1387.353, 1756.500 1387.381 C 1763.100 1387.403, 1771.088 1386.844, 1774.250 1386.140 C 1780 1384.858, 1780 1384.858, 1780 1350.083 C 1780 1315.307, 1780 1315.307, 1767.750 1315.190 C 1760.331 1315.120, 1753.134 1314.464, 1749.500 1313.527 C 1746.200 1312.676, 1739.701 1310.120, 1735.058 1307.847 C 1728.708 1304.737, 1724.841 1301.938, 1719.452 1296.548 C 1714.094 1291.190, 1711.238 1287.255, 1708.126 1280.942 C 1705.837 1276.299, 1703.305 1269.350, 1702.499 1265.500 C 1701.267 1259.611, 1701.032 1241.713, 1701.017 1152.750 C 1701 1047, 1701 1047, 1664.750 1047 C 1628.500 1047, 1628.500 1047, 1628.835 1120.163 C 1629.169 1193.326, 1629.169 1193.326, 1623.451 1184.913 C 1620.306 1180.286, 1614.835 1173.020, 1611.294 1168.767 C 1607.753 1164.514, 1601.401 1157.839, 1597.178 1153.934 C 1592.955 1150.029, 1585.482 1144.137, 1580.571 1140.841 C 1575.659 1137.544, 1569.134 1133.588, 1566.071 1132.049 C 1563.007 1130.509, 1557.125 1128.028, 1553 1126.535 C 1548.875 1125.042, 1540.775 1122.717, 1535 1121.367 C 1527.308 1119.569, 1520.355 1118.764, 1509 1118.356 C 1497.644 1117.948, 1490.827 1118.210, 1483.500 1119.337 C 1478 1120.182, 1469.675 1122.074, 1465 1123.542 C 1460.325 1125.009, 1453.242 1127.706, 1449.261 1129.535 C 1445.279 1131.364, 1438.304 1135.297, 1433.761 1138.277 C 1429.217 1141.256, 1421.900 1146.822, 1417.500 1150.646 C 1413.100 1154.469, 1405.900 1161.703, 1401.500 1166.720 C 1393.500 1175.842, 1393.500 1175.842, 1393.235 1146.921 C 1392.970 1118, 1392.970 1118, 1354.485 1118 C 1316 1118, 1316 1118, 1316 1082.500 C 1316 1047, 1316 1047, 1279.467 1047 C 1242.935 1047, 1242.935 1047, 1243.280 1160.250 M 2359.205 1075.090 C 2359.500 1103.179, 2359.500 1103.179, 2361.843 1105.075 C 2363.131 1106.117, 2367.181 1107.867, 2370.843 1108.962 C 2374.504 1110.057, 2380.650 1112.471, 2384.500 1114.325 C 2388.350 1116.180, 2395.187 1120.480, 2399.694 1123.881 C 2404.200 1127.281, 2410.321 1132.862, 2413.295 1136.282 C 2416.269 1139.702, 2421.056 1145.763, 2423.932 1149.750 C 2426.807 1153.737, 2429.349 1157, 2429.580 1157 C 2429.811 1157, 2430 1132.250, 2430 1102 C 2430 1047, 2430 1047, 2394.455 1047 C 2358.911 1047, 2358.911 1047, 2359.205 1075.090 M 2898.802 1047.250 C 2898.693 1047.388, 2898.350 1096.100, 2898.038 1155.500 C 2897.471 1263.500, 2897.471 1263.500, 2895.147 1270.500 C 2893.869 1274.350, 2891.227 1280.381, 2889.277 1283.903 C 2887.327 1287.425, 2882.955 1293.050, 2879.562 1296.403 C 2876.170 1299.756, 2870.827 1304.020, 2867.689 1305.877 C 2864.551 1307.735, 2858.949 1310.410, 2855.242 1311.822 C 2849.298 1314.085, 2846.961 1314.396, 2835.500 1314.445 C 2824.360 1314.492, 2821.444 1314.154, 2815.124 1312.084 C 2811.068 1310.755, 2804.536 1307.571, 2800.609 1305.007 C 2796.682 1302.444, 2791.134 1297.727, 2788.281 1294.525 C 2785.427 1291.324, 2781.540 1285.733, 2779.643 1282.102 C 2777.745 1278.471, 2775.491 1273.111, 2774.633 1270.191 C 2773.775 1267.271, 2772.776 1261.606, 2772.413 1257.602 C 2771.944 1252.429, 2772.245 1247.889, 2773.452 1241.912 C 2774.386 1237.285, 2776.479 1230.710, 2778.103 1227.300 C 2779.726 1223.889, 2783.681 1217.589, 2786.890 1213.300 C 2790.099 1209.010, 2809.034 1186.600, 2828.968 1163.500 C 2848.902 1140.400, 2865.909 1120.713, 2866.761 1119.750 C 2868.234 1118.086, 2866.005 1118, 2821.503 1118 C 2774.696 1118, 2774.696 1118, 2769.584 1123.250 C 2766.773 1126.138, 2758.329 1135.475, 2750.820 1144 C 2743.311 1152.525, 2734.834 1162.425, 2731.983 1166 C 2729.132 1169.575, 2724.369 1176.150, 2721.400 1180.611 C 2718.430 1185.072, 2714.234 1192.497, 2712.075 1197.111 C 2709.916 1201.725, 2707.124 1208.994, 2705.870 1213.265 C 2704.616 1217.536, 2703.178 1220.893, 2702.675 1220.725 C 2702.171 1220.557, 2700.307 1216.353, 2698.532 1211.382 C 2696.757 1206.411, 2693.652 1198.907, 2691.631 1194.705 C 2689.610 1190.504, 2685.185 1182.889, 2681.797 1177.783 C 2677.986 1172.041, 2671.415 1164.304, 2664.568 1157.500 C 2658.410 1151.379, 2649.729 1143.997, 2645 1140.859 C 2640.325 1137.757, 2633.197 1133.568, 2629.160 1131.551 C 2625.123 1129.535, 2617.248 1126.356, 2611.660 1124.488 C 2606.072 1122.620, 2597.504 1120.396, 2592.619 1119.546 C 2587.734 1118.696, 2578.006 1118, 2571 1118 C 2563.994 1118, 2554.266 1118.686, 2549.381 1119.525 C 2544.496 1120.364, 2536.450 1122.194, 2531.500 1123.593 C 2526.550 1124.991, 2517.814 1128.362, 2512.086 1131.085 C 2506.358 1133.807, 2498.033 1138.464, 2493.586 1141.434 C 2489.139 1144.404, 2482.016 1150.056, 2477.757 1153.994 C 2473.499 1157.931, 2466.741 1165.506, 2462.740 1170.827 C 2458.738 1176.147, 2453.566 1184.157, 2451.246 1188.627 C 2448.925 1193.097, 2445.465 1201.422, 2443.556 1207.127 C 2441.647 1212.832, 2439.395 1221.550, 2438.550 1226.500 C 2437.705 1231.450, 2436.563 1242.700, 2436.011 1251.500 C 2435.459 1260.300, 2435.005 1293.202, 2435.004 1324.615 C 2435 1380.886, 2435.031 1381.769, 2437.073 1384.365 C 2439.145 1387, 2439.145 1387, 2470.517 1387 C 2501.888 1387, 2501.888 1387, 2504.694 1384.587 C 2507.500 1382.174, 2507.500 1382.174, 2507.685 1314.960 C 2507.842 1258.115, 2508.116 1246.493, 2509.461 1239.623 C 2510.390 1234.883, 2512.728 1228.064, 2515.075 1223.250 C 2518.008 1217.233, 2520.921 1213.172, 2525.834 1208.250 C 2529.539 1204.537, 2535.060 1200.032, 2538.103 1198.238 C 2541.146 1196.444, 2546.152 1194.092, 2549.227 1193.012 C 2552.302 1191.931, 2557.973 1190.557, 2561.828 1189.959 C 2566.722 1189.199, 2571.052 1189.179, 2576.169 1189.891 C 2580.201 1190.452, 2586.425 1191.819, 2590 1192.929 C 2593.575 1194.039, 2599.354 1196.642, 2602.843 1198.713 C 2606.332 1200.784, 2611.377 1204.578, 2614.055 1207.146 C 2616.732 1209.713, 2620.713 1214.582, 2622.900 1217.966 C 2625.087 1221.350, 2627.781 1226.905, 2628.887 1230.310 C 2629.993 1233.714, 2631.371 1239.170, 2631.949 1242.434 C 2632.616 1246.199, 2633 1273.511, 2633 1317.184 C 2633 1386, 2633 1386, 2669.500 1386 C 2706 1386, 2706 1386, 2706 1342.346 C 2706 1298.692, 2706 1298.692, 2711.750 1310.148 C 2714.912 1316.449, 2720.162 1325.295, 2723.414 1329.807 C 2726.667 1334.319, 2733.867 1342.422, 2739.414 1347.813 C 2744.962 1353.205, 2753.054 1360.011, 2757.398 1362.938 C 2761.741 1365.865, 2770.291 1370.654, 2776.398 1373.579 C 2782.504 1376.505, 2791.410 1380.024, 2796.189 1381.399 C 2800.968 1382.774, 2809.576 1384.597, 2815.317 1385.450 C 2821.059 1386.302, 2830.141 1387, 2835.500 1387 C 2840.859 1387, 2850.026 1386.299, 2855.872 1385.442 C 2861.717 1384.584, 2871.900 1382.088, 2878.500 1379.895 C 2885.100 1377.701, 2894.325 1373.851, 2899 1371.340 C 2903.675 1368.829, 2911.074 1364.238, 2915.441 1361.137 C 2919.809 1358.037, 2927.487 1351.416, 2932.503 1346.425 C 2937.520 1341.434, 2943.171 1335.195, 2945.062 1332.561 C 2948.500 1327.772, 2948.500 1327.772, 2949 1356.592 C 2949.500 1385.411, 2949.500 1385.411, 2952 1386.106 C 2953.375 1386.488, 2973.850 1386.837, 2997.500 1386.881 C 3029.548 1386.941, 3043.242 1386.596, 3051.268 1385.528 C 3057.190 1384.739, 3065.515 1383.120, 3069.768 1381.928 C 3074.021 1380.737, 3081.398 1378.084, 3086.161 1376.032 C 3090.925 1373.981, 3098.785 1369.666, 3103.629 1366.443 C 3108.472 1363.221, 3116.295 1356.740, 3121.013 1352.042 C 3125.732 1347.344, 3133.200 1338.670, 3137.610 1332.767 C 3142.019 1326.865, 3147.735 1318.037, 3150.312 1313.150 C 3152.888 1308.263, 3156.513 1299.593, 3158.367 1293.882 C 3160.220 1288.172, 3162.359 1280.350, 3163.118 1276.500 C 3163.933 1272.371, 3164.500 1263.143, 3164.500 1254 C 3164.500 1244.857, 3163.933 1235.629, 3163.118 1231.500 C 3162.359 1227.650, 3160.267 1219.972, 3158.471 1214.437 C 3156.675 1208.902, 3152.850 1199.677, 3149.970 1193.937 C 3147.090 1188.197, 3142.336 1179.900, 3139.405 1175.500 C 3136.474 1171.100, 3131.022 1163.682, 3127.288 1159.015 C 3123.555 1154.348, 3115.189 1145.171, 3108.697 1138.621 C 3102.205 1132.071, 3096.038 1125.035, 3094.992 1122.985 C 3093.922 1120.887, 3092.087 1118.988, 3090.795 1118.642 C 3089.533 1118.304, 3071.746 1118.021, 3051.269 1118.014 C 3014.038 1118, 3014.038 1118, 3013.463 1120.750 C 3013.146 1122.263, 3012.238 1126.291, 3011.445 1129.702 C 3010.651 1133.113, 3008.964 1138.764, 3007.695 1142.258 C 3006.427 1145.753, 3003.651 1151.737, 3001.526 1155.556 C 2999.321 1159.521, 2994.625 1165.537, 2990.582 1169.579 C 2986.687 1173.472, 2980.663 1178.309, 2977.196 1180.329 C 2973.729 1182.348, 2970.692 1184, 2970.446 1184 C 2970.201 1184, 2970 1153.175, 2970 1115.500 C 2970 1047, 2970 1047, 2934.500 1047 C 2914.975 1047, 2898.911 1047.112, 2898.802 1047.250 M 2294.766 1144.613 C 2294.500 1172.226, 2294.500 1172.226, 2291.096 1167.485 C 2289.223 1164.877, 2284.954 1159.817, 2281.609 1156.241 C 2278.263 1152.664, 2271.920 1146.943, 2267.513 1143.526 C 2263.106 1140.110, 2256.593 1135.627, 2253.039 1133.565 C 2249.486 1131.503, 2242.870 1128.281, 2238.337 1126.404 C 2233.804 1124.528, 2226.361 1122.070, 2221.797 1120.943 C 2217.132 1119.791, 2208.211 1118.638, 2201.417 1118.309 C 2192.349 1117.870, 2186.752 1118.155, 2178.986 1119.454 C 2173.295 1120.405, 2164.782 1122.532, 2160.069 1124.180 C 2155.356 1125.828, 2147.775 1129.192, 2143.221 1131.656 C 2138.668 1134.120, 2131.400 1138.805, 2127.070 1142.068 C 2121.226 1146.471, 2118.363 1148, 2115.956 1148 C 2113.596 1148, 2109.967 1146.132, 2102.608 1141.129 C 2097.048 1137.350, 2088.675 1132.337, 2084 1129.988 C 2079.325 1127.640, 2072.400 1124.662, 2068.610 1123.371 C 2064.821 1122.080, 2058.133 1120.344, 2053.750 1119.512 C 2049.366 1118.680, 2041.388 1118, 2036.021 1118 C 2030.653 1118, 2022.470 1118.661, 2017.836 1119.469 C 2013.202 1120.278, 2005.830 1122.129, 2001.455 1123.583 C 1997.080 1125.037, 1989.675 1128.194, 1985 1130.598 C 1980.325 1133.002, 1972.617 1137.890, 1967.872 1141.460 C 1963.126 1145.030, 1956.033 1151.389, 1952.108 1155.591 C 1948.184 1159.793, 1942.504 1166.942, 1939.487 1171.477 C 1936.469 1176.012, 1932.238 1183.497, 1930.083 1188.111 C 1927.928 1192.725, 1925.177 1199.425, 1923.970 1203 C 1922.763 1206.575, 1920.841 1213.550, 1919.699 1218.500 C 1917.709 1227.126, 1917.608 1230.793, 1917.261 1306.750 C 1916.900 1386, 1916.900 1386, 1951.847 1386 C 1986.795 1386, 1986.795 1386, 1987.295 1318.250 C 1987.710 1262.092, 1988.066 1249.113, 1989.376 1242.391 C 1990.246 1237.931, 1992.360 1230.281, 1994.075 1225.391 C 1995.791 1220.501, 1998.563 1213.912, 2000.237 1210.748 C 2001.911 1207.584, 2005.276 1203.156, 2007.715 1200.908 C 2010.154 1198.660, 2014.526 1195.733, 2017.431 1194.403 C 2020.335 1193.073, 2025.364 1191.494, 2028.606 1190.894 C 2031.848 1190.293, 2037.149 1190.101, 2040.386 1190.466 C 2043.624 1190.831, 2048.685 1192.033, 2051.633 1193.136 C 2054.711 1194.287, 2059.265 1197.217, 2062.329 1200.018 C 2065.264 1202.700, 2069.059 1207.509, 2070.762 1210.704 C 2072.465 1213.900, 2074.791 1219.878, 2075.930 1223.990 C 2077.069 1228.102, 2078.476 1235.285, 2079.056 1239.953 C 2079.696 1245.102, 2080.090 1272.057, 2080.057 1308.470 C 2080.027 1341.487, 2080.285 1372.438, 2080.631 1377.250 C 2081.258 1386, 2081.258 1386, 2116.629 1386 C 2152 1386, 2152 1386, 2152 1318.072 C 2152 1274.957, 2152.394 1247.313, 2153.078 1242.392 C 2153.671 1238.128, 2155.193 1230.554, 2156.459 1225.562 C 2157.726 1220.570, 2159.771 1214.337, 2161.005 1211.712 C 2162.239 1209.088, 2165.175 1204.797, 2167.529 1202.179 C 2169.884 1199.560, 2174.272 1196.212, 2177.281 1194.739 C 2180.290 1193.265, 2185.905 1191.539, 2189.759 1190.903 C 2194.980 1190.040, 2198.391 1190.030, 2203.134 1190.863 C 2206.635 1191.478, 2212.293 1193.354, 2215.707 1195.032 C 2219.790 1197.039, 2223.633 1200.012, 2226.938 1203.720 C 2230.062 1207.224, 2233.126 1212.154, 2235.041 1216.753 C 2236.734 1220.821, 2238.977 1227.502, 2240.025 1231.600 C 2241.074 1235.697, 2242.397 1243.587, 2242.966 1249.131 C 2243.552 1254.845, 2244 1284.631, 2244 1317.894 C 2244 1376.576, 2244 1376.576, 2246.250 1381.038 C 2247.953 1384.416, 2249.229 1385.654, 2251.500 1386.132 C 2253.150 1386.479, 2268.450 1386.817, 2285.500 1386.882 C 2316.500 1387, 2316.500 1387, 2316.467 1316.250 C 2316.438 1254.152, 2316.219 1244.033, 2314.680 1233.500 C 2313.715 1226.900, 2311.790 1216.417, 2310.403 1210.205 C 2309.015 1203.992, 2307.257 1197.146, 2306.497 1194.991 C 2305.114 1191.073, 2305.114 1191.073, 2308.307 1191.679 C 2310.063 1192.012, 2314.309 1193.289, 2317.742 1194.515 C 2321.174 1195.742, 2326.506 1198.265, 2329.589 1200.123 C 2332.672 1201.980, 2337.964 1206.429, 2341.348 1210.009 C 2344.786 1213.647, 2348.914 1219.396, 2350.707 1223.043 C 2352.470 1226.632, 2354.700 1232.254, 2355.662 1235.535 C 2357.227 1240.872, 2357.468 1248.764, 2357.956 1310.500 C 2358.448 1372.950, 2358.662 1379.795, 2360.202 1382.607 C 2361.617 1385.192, 2362.693 1385.823, 2366.592 1386.357 C 2369.170 1386.711, 2384.522 1387, 2400.708 1387 C 2430.137 1387, 2430.137 1387, 2429.744 1312.750 C 2429.401 1248.055, 2429.129 1237.277, 2427.632 1229 C 2426.686 1223.775, 2424.356 1214.847, 2422.454 1209.160 C 2420.552 1203.473, 2416.755 1194.473, 2414.017 1189.160 C 2411.280 1183.847, 2406.123 1175.625, 2402.558 1170.890 C 2398.993 1166.154, 2392.420 1158.840, 2387.951 1154.636 C 2383.482 1150.432, 2375.464 1144.089, 2370.133 1140.540 C 2364.802 1136.991, 2357.079 1132.561, 2352.970 1130.696 C 2348.862 1128.831, 2341.900 1126.141, 2337.500 1124.717 C 2333.100 1123.293, 2327.025 1121.652, 2324 1121.071 C 2320.975 1120.490, 2313.584 1119.337, 2307.576 1118.508 C 2301.568 1117.678, 2296.287 1117, 2295.842 1117 C 2295.396 1117, 2294.912 1129.426, 2294.766 1144.613 M 971.500 1191.870 C 968.200 1192.820, 962.575 1195.134, 959 1197.012 C 954.925 1199.153, 949.479 1203.425, 944.403 1208.463 C 938.012 1214.807, 935.427 1218.291, 932.134 1225 C 929.839 1229.675, 927.252 1236.875, 926.383 1241 C 925.318 1246.058, 924.988 1251.015, 925.369 1256.225 C 925.679 1260.473, 927.091 1267.399, 928.507 1271.615 C 929.922 1275.831, 932.173 1281.130, 933.509 1283.390 C 934.845 1285.651, 937.868 1289.839, 940.227 1292.698 C 942.586 1295.556, 947.163 1299.951, 950.399 1302.464 C 953.635 1304.977, 959.146 1308.399, 962.646 1310.070 C 966.145 1311.740, 972.044 1313.750, 975.754 1314.536 C 979.464 1315.322, 985.200 1315.965, 988.500 1315.965 C 991.800 1315.965, 997.567 1315.316, 1001.315 1314.521 C 1005.063 1313.727, 1011.363 1311.509, 1015.315 1309.593 C 1019.267 1307.676, 1025.087 1303.946, 1028.249 1301.304 C 1031.411 1298.662, 1035.848 1294.026, 1038.110 1291.002 C 1040.371 1287.979, 1043.489 1282.993, 1045.039 1279.922 C 1046.589 1276.852, 1048.564 1271.611, 1049.429 1268.276 C 1050.305 1264.895, 1051 1258.135, 1051 1253 C 1051 1247.919, 1050.297 1241.033, 1049.433 1237.644 C 1048.572 1234.265, 1046.224 1228.125, 1044.215 1224 C 1041.490 1218.402, 1038.527 1214.463, 1032.532 1208.468 C 1026.537 1202.473, 1022.598 1199.510, 1017 1196.785 C 1012.875 1194.776, 1006.735 1192.428, 1003.356 1191.567 C 999.677 1190.629, 993.257 1190.029, 987.356 1190.071 C 981.205 1190.116, 975.245 1190.792, 971.500 1191.870 M 1315.228 1228.750 C 1315.597 1265.248, 1315.746 1267.878, 1317.787 1274 C 1318.978 1277.575, 1321.790 1283.298, 1324.034 1286.718 C 1326.279 1290.138, 1330.807 1295.372, 1334.097 1298.350 C 1337.388 1301.328, 1342.650 1305.122, 1345.790 1306.781 C 1348.931 1308.440, 1353.619 1310.506, 1356.209 1311.373 C 1358.799 1312.240, 1363.974 1313.442, 1367.709 1314.046 C 1371.444 1314.649, 1376.801 1314.861, 1379.613 1314.517 C 1384.727 1313.890, 1384.727 1313.890, 1380.845 1304.886 C 1378.710 1299.933, 1375.852 1291.607, 1374.495 1286.383 C 1373.138 1281.160, 1371.500 1271.687, 1370.856 1265.333 C 1369.968 1256.570, 1369.962 1250.941, 1370.835 1242.026 C 1371.467 1235.562, 1373.284 1225.149, 1374.873 1218.887 C 1376.461 1212.624, 1379.354 1203.563, 1381.302 1198.750 C 1384.843 1190, 1384.843 1190, 1349.840 1190 C 1314.837 1190, 1314.837 1190, 1315.228 1228.750 M 3054.487 1203.553 C 3050.161 1209.024, 3042.304 1217.775, 3037.025 1223 C 3031.746 1228.225, 3023.260 1235.351, 3018.168 1238.836 C 3013.075 1242.321, 3005.191 1246.915, 3000.648 1249.043 C 2996.105 1251.172, 2988.138 1254.101, 2982.944 1255.552 C 2976.962 1257.223, 2972.752 1259.003, 2971.459 1260.408 C 2969.964 1262.032, 2968 1269.038, 2964.128 1286.563 C 2961.219 1299.729, 2958.592 1311.550, 2958.290 1312.834 C 2957.741 1315.168, 2957.741 1315.168, 3000.620 1314.781 C 3043.500 1314.393, 3043.500 1314.393, 3051.657 1311.682 C 3056.144 1310.191, 3062.551 1307.144, 3065.895 1304.911 C 3069.239 1302.678, 3074.004 1298.532, 3076.484 1295.697 C 3078.963 1292.862, 3082.528 1287.608, 3084.404 1284.022 C 3086.281 1280.435, 3088.867 1274.125, 3090.152 1270 C 3092.004 1264.050, 3092.486 1260.227, 3092.483 1251.500 C 3092.480 1243.364, 3091.989 1239.068, 3090.600 1235 C 3089.567 1231.975, 3087.483 1227.025, 3085.969 1224 C 3084.455 1220.975, 3081.209 1215.800, 3078.757 1212.500 C 3076.304 1209.200, 3071.610 1203.599, 3068.324 1200.053 C 3062.350 1193.607, 3062.350 1193.607, 3054.487 1203.553 M 2014.239 1230.335 C 2012.445 1230.985, 2009.407 1232.771, 2007.486 1234.303 C 2005.566 1235.836, 2003.071 1238.900, 2001.942 1241.113 C 2000.813 1243.326, 1999.634 1247.294, 1999.322 1249.931 C 1999.001 1252.638, 1999.289 1256.416, 1999.984 1258.612 C 2000.661 1260.751, 2002.382 1264.230, 2003.809 1266.345 C 2005.236 1268.460, 2008.675 1271.493, 2011.452 1273.086 C 2015.611 1275.471, 2017.645 1275.979, 2023 1275.969 C 2027.134 1275.961, 2030.956 1275.293, 2033.500 1274.134 C 2035.700 1273.132, 2039.133 1270.501, 2041.129 1268.287 C 2043.125 1266.073, 2045.311 1262.587, 2045.987 1260.539 C 2046.677 1258.448, 2047.045 1253.810, 2046.827 1249.952 C 2046.510 1244.340, 2045.896 1242.302, 2043.464 1238.793 C 2041.525 1235.996, 2038.598 1233.542, 2035.064 1231.750 C 2030.828 1229.602, 2028.313 1229.017, 2023.571 1229.076 C 2020.232 1229.118, 2016.032 1229.684, 2014.239 1230.335 M 2173.239 1230.335 C 2171.445 1230.985, 2168.407 1232.771, 2166.486 1234.303 C 2164.566 1235.836, 2162.015 1238.982, 2160.817 1241.295 C 2159.242 1244.337, 2158.632 1247.314, 2158.614 1252.056 C 2158.592 1257.536, 2159.089 1259.507, 2161.637 1264.056 C 2163.899 1268.095, 2166.070 1270.339, 2170.049 1272.750 C 2174.601 1275.509, 2176.367 1276, 2181.738 1276 C 2185.217 1276, 2189.737 1275.302, 2191.782 1274.449 C 2193.827 1273.596, 2197.002 1271.459, 2198.838 1269.699 C 2200.673 1267.940, 2202.993 1264.914, 2203.992 1262.977 C 2204.992 1261.039, 2206.101 1257.439, 2206.457 1254.977 C 2206.871 1252.120, 2206.574 1248.765, 2205.637 1245.705 C 2204.829 1243.068, 2202.946 1239.307, 2201.451 1237.347 C 2199.952 1235.381, 2196.441 1232.717, 2193.617 1231.402 C 2189.926 1229.683, 2186.828 1229.038, 2182.500 1229.086 C 2179.200 1229.122, 2175.032 1229.684, 2173.239 1230.335" stroke="none" fill="current" fill-rule="evenodd"/></svg>