<svg xmlns="http://www.w3.org/2000/svg" width="900" height="900" viewBox="0 0 900 900" version="1.1"><path d="M 307.999 356.750 C 307.997 518.750, 308.074 515.818, 303.424 531.961 C 299.392 545.959, 287.133 564.488, 274.990 574.939 C 245.474 600.343, 203.191 605.166, 169.500 586.971 C 146.568 574.586, 130.074 553.646, 123.285 528.297 C 119.618 514.606, 119.434 494.605, 122.860 482.001 C 128.096 462.735, 134.118 453.367, 162.134 420.898 C 173.335 407.917, 190.600 387.898, 200.500 376.411 C 210.400 364.925, 227.292 345.396, 238.039 333.013 C 248.785 320.631, 257.924 309.938, 258.348 309.250 C 258.961 308.255, 245.311 308.011, 191.309 308.055 L 123.500 308.110 108.500 325.649 C 100.250 335.296, 85.248 352.709, 75.163 364.345 C 55.828 386.650, 47.209 398.621, 39.057 414.487 C 29.147 433.775, 21.843 456.839, 18.942 478 C 17.436 488.985, 17.442 519.085, 18.953 530 C 25.008 573.755, 45.863 615.497, 76.157 644.500 C 87.389 655.253, 88.900 656.487, 101.605 665.271 C 128.102 683.592, 155.998 694.391, 189 699.104 C 193.675 699.772, 204.925 700.307, 214 700.293 C 263.142 700.218, 307.849 683.396, 344.659 651.128 C 371.087 627.962, 395.547 588.741, 403.363 557 C 409.019 534.028, 409.214 532.429, 409.674 505 C 410.065 481.679, 410.368 477.720, 412.199 472 C 420.473 446.152, 441.313 424.674, 463.103 419.537 C 477.478 416.149, 495.245 418.344, 505.979 424.835 C 520.375 433.539, 530.277 447.257, 536.417 467 C 541.950 484.793, 541.988 485.681, 541.994 597.723 L 542 700.946 591.750 700.723 L 641.500 700.500 642.052 594.500 C 642.599 489.345, 642.622 488.422, 644.841 478.659 C 653.813 439.196, 675.406 417.971, 706.500 418.050 C 724.093 418.095, 737.344 423.523, 749.867 435.813 C 761.711 447.438, 769.335 461.837, 774.266 481.893 C 776.332 490.299, 776.395 492.948, 776.941 595.500 L 777.500 700.500 827.803 700.759 L 878.105 701.019 877.720 591.259 C 877.344 484.208, 877.282 481.229, 875.204 470.500 C 860.142 392.718, 814.048 339.111, 748 322.560 C 731.371 318.394, 724.206 317.566, 704.500 317.539 C 683.554 317.509, 675.943 318.637, 659.500 324.211 C 641.514 330.308, 618.807 343.324, 598.248 359.321 L 591.996 364.186 585.248 359.244 C 556.349 338.076, 530.135 324.807, 506.500 319.381 C 497.432 317.299, 475.178 316.562, 462.500 317.922 C 446.845 319.603, 424.125 325.299, 415.700 329.655 C 409.716 332.750, 410 335.871, 410 267.031 L 410 204 359 204 L 308 204 307.999 356.750 M 486.254 477.902 C 480.740 479.948, 475.602 483.674, 472.049 488.203 C 464.808 497.435, 463.311 511.762, 468.492 522.259 C 472.116 529.605, 478.016 535.542, 485 538.874 C 492.921 542.653, 504.104 542.621, 512.270 538.795 C 520.003 535.173, 527.251 527.605, 530.021 520.262 C 532.674 513.228, 532.458 500.793, 529.578 494.775 C 526.641 488.637, 520.464 482.457, 514.281 479.472 C 506.479 475.705, 494.052 475.009, 486.254 477.902 M 721.758 477.888 C 714.598 480.776, 707.532 487.216, 704.297 493.803 C 701.847 498.793, 701.506 500.617, 701.545 508.500 C 701.599 519.338, 703.898 525.031, 711.036 532 C 718.468 539.256, 723.919 541.505, 734 541.475 C 741.295 541.454, 743.315 541.047, 748.251 538.607 C 755.405 535.071, 760.612 530.060, 764.500 522.970 C 767.206 518.036, 767.500 516.618, 767.500 508.500 C 767.500 500.921, 767.113 498.743, 765.051 494.706 C 761.707 488.160, 756.083 482.677, 749.321 479.369 C 741.763 475.671, 728.961 474.983, 721.758 477.888" stroke="none" fill="current" fill-rule="evenodd"/></svg>